<svg width="17" height="17" viewBox="0 0 17 17" fill="none" xmlns="http://www.w3.org/2000/svg">
<path d="M1.41663 6.37484C1.41663 5.03892 1.41663 4.37167 1.83171 3.95659C2.24679 3.5415 2.91404 3.5415 4.24996 3.5415H12.75C14.0859 3.5415 14.7531 3.5415 15.1682 3.95659C15.5833 4.37167 15.5833 5.03892 15.5833 6.37484C15.5833 6.70846 15.5833 6.87563 15.4799 6.97975C15.3758 7.08317 15.2079 7.08317 14.875 7.08317H2.12496C1.79133 7.08317 1.62417 7.08317 1.52004 6.97975C1.41663 6.87563 1.41663 6.70775 1.41663 6.37484ZM1.41663 12.7498C1.41663 14.0858 1.41663 14.753 1.83171 15.1681C2.24679 15.5832 2.91404 15.5832 4.24996 15.5832H12.75C14.0859 15.5832 14.7531 15.5832 15.1682 15.1681C15.5833 14.753 15.5833 14.0858 15.5833 12.7498V9.20817C15.5833 8.87455 15.5833 8.70738 15.4799 8.60325C15.3758 8.49984 15.2079 8.49984 14.875 8.49984H2.12496C1.79133 8.49984 1.62417 8.49984 1.52004 8.60325C1.41663 8.70738 1.41663 8.87525 1.41663 9.20817V12.7498Z" fill="#101010"/>
<path d="M4.95825 2.125V4.25M12.0416 2.125V4.25" stroke="#101010" stroke-width="2" stroke-linecap="round"/>
</svg>
