<svg width="12" height="14" viewBox="0 0 12 14" fill="none" xmlns="http://www.w3.org/2000/svg">
<path d="M10 14C9.45 14 8.97933 13.8043 8.588 13.413C8.19667 13.0217 8.00067 12.5507 8 12V2C8 1.45 8.196 0.979335 8.588 0.588001C8.98 0.196668 9.45067 0.000668362 10 1.69492e-06C10.5493 -0.000664972 11.0203 0.195335 11.413 0.588001C11.8057 0.980668 12.0013 1.45133 12 2V12C12 12.55 11.8043 13.021 11.413 13.413C11.0217 13.805 10.5507 14.0007 10 14ZM2 14C1.45 14 0.979333 13.8043 0.588 13.413C0.196666 13.0217 0.000666667 12.5507 0 12V2C0 1.45 0.196 0.979335 0.588 0.588001C0.98 0.196668 1.45067 0.000668362 2 1.69492e-06C2.54933 -0.000664972 3.02033 0.195335 3.413 0.588001C3.80567 0.980668 4.00133 1.45133 4 2V12C4 12.55 3.80433 13.021 3.413 13.413C3.02167 13.805 2.55067 14.0007 2 14Z" fill="black"/>
</svg>
