<svg width="13" height="15" viewBox="0 0 13 15" fill="none" xmlns="http://www.w3.org/2000/svg">
<path d="M1.505 0.819913C1.42909 0.774904 1.34262 0.75079 1.25437 0.750019C1.16612 0.749248 1.07924 0.771849 1.00255 0.815525C0.925864 0.859201 0.862103 0.922396 0.817746 0.99869C0.773389 1.07499 0.750015 1.16166 0.75 1.24991V12.8282C0.750015 12.9165 0.773389 13.0032 0.817746 13.0795C0.862103 13.1558 0.925864 13.219 1.00255 13.2626C1.07924 13.3063 1.16612 13.3289 1.25437 13.3281C1.34262 13.3274 1.42909 13.3033 1.505 13.2582L11.2742 7.46908C11.3488 7.42481 11.4106 7.36188 11.4535 7.28649C11.4964 7.2111 11.519 7.12584 11.519 7.03908C11.519 6.95232 11.4964 6.86706 11.4535 6.79167C11.4106 6.71628 11.3488 6.65335 11.2742 6.60908L1.505 0.819913Z" fill="white" stroke="white" stroke-width="1.5" stroke-linecap="round" stroke-linejoin="round"/>
</svg>
