<svg width="47" height="47" viewBox="0 0 47 47" fill="none" xmlns="http://www.w3.org/2000/svg">
<path fill-rule="evenodd" clip-rule="evenodd" d="M23.4999 2.58203e-10C26.586 -1.44657e-05 29.6419 0.607819 32.493 1.78879C35.3442 2.96977 37.9348 4.70076 40.117 6.88294C42.2992 9.06511 44.0302 11.6557 45.2112 14.5069C46.3922 17.358 47 20.4139 47 23.4999C47 36.4787 36.4787 47 23.4999 47C10.5213 47 0 36.4787 0 23.4999C0 10.5213 10.5213 2.58203e-10 23.4999 2.58203e-10ZM25.85 25.85H21.15C15.3321 25.85 10.3373 29.3736 8.18295 34.4034C11.5916 39.1832 17.1818 42.3 23.4999 42.3C29.8181 42.3 35.4083 39.1832 38.8171 34.4031C36.6627 29.3736 31.6679 25.85 25.85 25.85ZM23.4999 7.04999C19.6064 7.04999 16.4499 10.2064 16.4499 14.1C16.4499 17.9936 19.6064 21.15 23.4999 21.15C27.3935 21.15 30.5499 17.9936 30.5499 14.1C30.5499 10.2064 27.3936 7.04999 23.4999 7.04999Z" fill="black"/>
</svg>
