<svg width="21" height="21" viewBox="0 0 21 21" fill="none" xmlns="http://www.w3.org/2000/svg">
<path fill-rule="evenodd" clip-rule="evenodd" d="M19.0313 10.5001L19.5759 10.2271V10.2245L19.572 10.2205L19.5641 10.2048L19.5366 10.1523L19.4316 9.96327C19.3034 9.74225 19.1673 9.52598 19.0234 9.31489C18.5432 8.61001 17.9912 7.95683 17.3762 7.36583C15.8983 5.94833 13.6238 4.50195 10.5 4.50195C7.37888 4.50195 5.10301 5.94702 3.62513 7.36583C3.01017 7.95683 2.45816 8.61001 1.97794 9.31489C1.78309 9.60239 1.60261 9.89938 1.43719 10.2048L1.42932 10.2205L1.42669 10.2245V10.2258C1.42669 10.2258 1.42538 10.2271 1.97007 10.5001L1.42538 10.2258C1.38327 10.3108 1.36136 10.4045 1.36136 10.4994C1.36136 10.5944 1.38327 10.688 1.42538 10.7731L1.42407 10.7757L1.42801 10.7796L1.43588 10.7954C1.47681 10.8774 1.52058 10.9579 1.56713 11.0369C2.13229 11.9916 2.82365 12.8657 3.62251 13.6356C5.10169 15.0531 7.37626 16.4969 10.5 16.4969C13.6224 16.4969 15.8983 15.0531 17.3775 13.6343C17.9913 13.0426 18.5428 12.3895 19.0234 11.6853C19.2074 11.4143 19.3787 11.1349 19.5366 10.8479L19.5641 10.7954L19.572 10.7796L19.5746 10.7757V10.7744C19.5746 10.7744 19.5759 10.7731 19.0313 10.5001ZM19.0313 10.5001L19.5759 10.7744C19.6181 10.6893 19.64 10.5957 19.64 10.5007C19.64 10.4058 19.6181 10.3122 19.5759 10.2271L19.0313 10.5001ZM10.4213 8.48408C9.88658 8.48408 9.3738 8.69648 8.99573 9.07455C8.61766 9.45262 8.40526 9.9654 8.40526 10.5001C8.40526 11.0348 8.61766 11.5475 8.99573 11.9256C9.3738 12.3037 9.88658 12.5161 10.4213 12.5161C10.9559 12.5161 11.4687 12.3037 11.8468 11.9256C12.2249 11.5475 12.4373 11.0348 12.4373 10.5001C12.4373 9.9654 12.2249 9.45262 11.8468 9.07455C11.4687 8.69648 10.9559 8.48408 10.4213 8.48408ZM7.18988 10.5001C7.18988 9.64237 7.5306 8.81979 8.1371 8.21329C8.74359 7.6068 9.56617 7.26608 10.4239 7.26608C11.2816 7.26608 12.1042 7.6068 12.7107 8.21329C13.3172 8.81979 13.6579 9.64237 13.6579 10.5001C13.6579 11.3578 13.3172 12.1804 12.7107 12.7869C12.1042 13.3934 11.2816 13.7341 10.4239 13.7341C9.56617 13.7341 8.74359 13.3934 8.1371 12.7869C7.5306 12.1804 7.18988 11.3578 7.18988 10.5001Z" fill="#17224B"/>
</svg>
